<?xml version="1.0" encoding="utf-8" ?>
<svg xmlns="http://www.w3.org/2000/svg" xmlns:xlink="http://www.w3.org/1999/xlink" width="1024" height="1024">
	<!-- <path fill="#FEFEFE" d="M0 0L1024 0L1024 1024L0 1024L0 0Z"/> -->
	<path fill="#202648" d="M814.726 421.327C819.966 425.54 824.567 430.805 829.489 435.41C844.167 449.142 860.454 461.777 869.89 479.995C876.099 491.982 877.091 503.521 877.078 516.786C877.074 520.866 877.221 525.48 875.977 529.387L875.628 529.761C872.216 529.655 861.699 521.215 858.79 518.728C839.779 502.469 827.668 479.258 819.577 455.961C818.081 451.652 816.107 446.998 815.324 442.496C814.139 435.678 815.294 428.275 814.726 421.327Z"/>
	<path fill="#202648" d="M145.1 513.936C145.205 513.731 145.314 513.529 145.414 513.322C146.828 510.376 146.475 505.11 147.148 501.759C149.203 491.52 154.149 480.615 159.708 471.817C173.928 449.311 197.989 436.461 210.767 412.41C210.741 423.022 211.683 434.418 210.639 444.912C208.283 468.584 191.767 491.872 175.287 508.226C166.804 516.645 157.208 524.023 146.351 529.139C146.346 529.096 146.348 529.053 146.336 529.012C144.973 524.166 144.246 518.939 145.1 513.936Z"/>
	<path fill="#202648" d="M50.0477 535.068C84.396 542.397 119.807 558.266 140.073 588.255Q145.252 595.995 149.049 604.498C150.663 608.065 152.074 612.479 154.256 615.702C154.414 615.936 154.578 616.164 154.739 616.396L155.572 618.162C148.923 619.522 136.021 615.725 129.382 613.484C93.0422 601.219 66.5841 568.385 50.0477 535.068Z"/>
	<path fill="#202648" d="M868.836 614.847C871.939 607.745 874.122 600.553 877.947 593.729C891.558 569.446 916.676 553.852 942.001 543.942C952.199 539.952 963.346 536.418 974.247 535.211C954.986 570.104 930.756 602.92 890.463 614.624C883.607 616.616 874.823 619.338 867.644 618.822C867.713 617.114 867.886 616.281 868.836 614.847Z"/>
	<path fill="#202648" d="M884.512 515.71C884.62 515.436 884.733 515.164 884.835 514.888C885.63 512.75 885.76 510.28 886.198 508.043C887.14 503.228 888.342 498.383 890.156 493.816C901.93 464.167 928.646 445.449 956.235 431.969C959.129 430.555 962.028 429.176 965.036 428.016C953.361 468.765 935.192 507.088 896.497 528.672Q889.823 532.335 882.889 535.478C882.317 529.456 883.481 521.689 884.512 515.71Z"/>
	<path fill="#202648" d="M64.3283 632.268Q64.996 632.224 65.6646 632.196Q67.4363 632.117 69.2096 632.086Q70.9828 632.054 72.7562 632.069Q74.5296 632.085 76.302 632.147Q78.0744 632.209 79.8446 632.318Q81.6147 632.427 83.3813 632.584Q85.1479 632.74 86.9098 632.942Q88.6717 633.145 90.4276 633.395Q92.1834 633.644 93.9321 633.94Q95.6807 634.236 97.4209 634.578Q99.1611 634.92 100.892 635.308Q102.622 635.696 104.342 636.129Q106.061 636.563 107.769 637.042Q109.477 637.521 111.171 638.045Q112.865 638.57 114.545 639.138Q116.225 639.707 117.889 640.321Q119.553 640.934 121.2 641.591Q122.848 642.248 124.477 642.948Q126.106 643.649 127.716 644.392Q129.327 645.135 130.917 645.921Q132.506 646.707 134.075 647.535Q135.644 648.362 137.19 649.231Q138.736 650.1 140.258 651.009Q141.781 651.919 143.279 652.868Q144.777 653.818 146.249 654.807Q147.721 655.796 149.167 656.823Q150.612 657.851 152.03 658.916Q153.448 659.981 154.837 661.084Q156.226 662.187 157.585 663.326Q158.945 664.465 160.273 665.639Q161.602 666.814 162.899 668.023Q164.196 669.233 165.461 670.476Q166.726 671.719 167.957 672.996C172.99 678.139 177.327 684.006 181.78 689.651C183.593 691.949 185.456 694.811 187.647 696.733C187.873 696.93 188.104 697.121 188.333 697.316C189.305 698.063 189.394 698.401 189.88 699.548C178.151 701.606 164.947 700.487 153.355 698.123C116.1 690.526 84.9245 663.289 64.3283 632.268Z"/>
	<path fill="#202648" d="M939.824 632.705C946.703 631.642 954.395 632.364 961.337 632.555Q959.722 634.803 958.023 636.988C932.917 669.307 898.679 695.319 857.119 700.4C849.65 700.838 842.318 700.62 834.936 699.368C838.718 690.834 844.842 681.766 850.764 674.63C871.611 649.511 907.899 635.74 939.824 632.705Z"/>
	<path fill="#D09B40" d="M512.285 57.9274C512.808 58.6197 512.668 58.2738 512.825 59.1865C516.907 82.7961 529.785 113.108 547.647 129.083C551.536 132.561 556.208 135.61 561.647 135.206C581.642 133.725 614.397 93.8374 627.088 78.5029C624.588 91.4685 625.348 104.065 628.368 116.897C636.188 150.113 654.891 179.6 684.249 197.743C734.5 228.799 796.587 218.772 850.961 205.894C834.397 220.252 809.659 244.001 797.538 262.098C792.275 269.956 788.184 278.487 784.909 287.345C783.313 285.258 781.436 283.344 779.612 281.459Q776.413 278.144 773.133 274.909Q769.854 271.674 766.496 268.52Q763.139 265.366 759.705 262.295Q756.271 259.224 752.763 256.237Q749.255 253.251 745.675 250.352Q742.096 247.453 738.446 244.642Q734.796 241.831 731.079 239.11Q727.361 236.389 723.578 233.76Q719.795 231.131 715.949 228.596Q712.103 226.06 708.196 223.619Q704.289 221.178 700.324 218.834Q696.358 216.489 692.336 214.242Q688.315 211.996 684.239 209.848Q680.164 207.7 676.037 205.653Q671.91 203.606 667.735 201.66Q663.559 199.714 659.337 197.871Q655.115 196.028 650.849 194.289Q646.583 192.55 642.276 190.915Q637.969 189.281 633.623 187.753Q629.278 186.224 624.896 184.802Q620.514 183.381 616.098 182.067Q611.683 180.753 607.237 179.547Q602.791 178.342 598.316 177.245Q593.842 176.149 589.342 175.162Q584.842 174.175 580.32 173.299Q575.797 172.423 571.254 171.658Q566.712 170.892 562.151 170.238Q557.591 169.584 553.017 169.042Q548.442 168.5 543.855 168.07Q539.269 167.64 534.673 167.322Q530.077 167.004 525.475 166.799Q520.873 166.594 516.267 166.501Q509.722 166.43 503.179 166.574Q498.612 166.713 494.049 166.964Q489.487 167.216 484.932 167.579Q480.377 167.943 475.832 168.419Q471.287 168.895 466.756 169.482Q462.224 170.07 457.708 170.768Q453.193 171.467 448.696 172.277Q444.198 173.087 439.723 174.008Q435.247 174.928 430.795 175.958Q426.343 176.989 421.918 178.128Q417.493 179.268 413.097 180.516Q408.702 181.764 404.338 183.12Q399.974 184.476 395.646 185.94Q391.317 187.403 387.025 188.972Q382.734 190.541 378.482 192.216Q374.23 193.89 370.021 195.669Q365.812 197.448 361.648 199.329Q357.484 201.211 353.368 203.195Q349.251 205.179 345.185 207.263Q341.119 209.348 337.105 211.532Q333.091 213.716 329.132 215.998Q325.174 218.28 321.272 220.659Q317.371 223.038 313.529 225.512Q309.688 227.987 305.908 230.555Q302.129 233.123 298.414 235.783Q294.699 238.444 291.05 241.195Q287.402 243.946 283.822 246.786Q280.242 249.626 276.734 252.554Q273.225 255.481 269.79 258.494Q266.354 261.507 262.994 264.604Q259.634 267.7 256.351 270.879Q253.068 274.057 249.864 277.316Q246.66 280.574 243.538 283.91C225.659 252.195 199.184 229.01 171.596 205.867C208.173 215.156 245.291 221.006 283.035 215.677C319.455 210.536 349.421 196.807 371.87 166.72C389.712 142.805 401.846 109.563 397.506 79.5136C410.167 95.5945 440.358 130.923 460.388 135.157C464.927 136.116 468.915 134.917 472.713 132.369C477.496 129.159 481.438 124.471 484.999 120.01C499.685 101.612 507.443 80.6522 512.285 57.9274Z"/>
	<defs>
		<linearGradient id="gradient_0" gradientUnits="userSpaceOnUse" x1="473.96414" y1="960.29419" x2="504.61163" y2="264.00189">
			<stop offset="0" stop-color="#01062A"/>
			<stop offset="1" stop-color="#1B244E"/>
		</linearGradient>
	</defs>
	<path fill="url(#gradient_0)" d="M833.467 276.086C853.861 300.365 872.782 328.54 877.055 360.752C878.309 370.201 878.142 379.328 872.151 387.191C874.61 398.91 877.914 409.291 879.902 421.464C880.247 423.572 880.587 430.99 881.658 431.975C881.55 430.83 881.502 429.712 881.511 428.562Q881.532 426.958 881.593 425.355Q881.654 423.752 881.755 422.151Q881.855 420.55 881.996 418.952Q882.136 417.354 882.315 415.76Q882.495 414.165 882.714 412.576Q882.934 410.987 883.192 409.404Q883.45 407.821 883.748 406.244Q884.045 404.668 884.382 403.099Q884.718 401.531 885.093 399.971Q885.468 398.411 885.882 396.861Q886.295 395.311 886.747 393.772Q887.199 392.233 887.689 390.705Q888.179 389.178 888.706 387.663Q889.234 386.148 889.798 384.646Q890.363 383.145 890.965 381.658Q891.567 380.171 892.205 378.699Q892.844 377.227 893.518 375.772Q894.193 374.316 894.903 372.878Q895.614 371.44 896.36 370.02Q897.105 368.599 897.886 367.198Q898.667 365.797 899.482 364.415Q900.297 363.033 901.146 361.672Q901.996 360.311 902.878 358.972Q903.761 357.632 904.676 356.315Q905.592 354.997 906.539 353.703Q907.487 352.409 908.467 351.138Q909.446 349.868 910.457 348.622Q911.468 347.376 912.509 346.156Q913.55 344.935 914.621 343.741Q915.692 342.547 916.792 341.38Q917.893 340.212 919.021 339.072Q920.15 337.933 921.307 336.821C922.704 357.32 924.652 376.987 920.399 397.383C914.997 423.289 905.891 438.072 883.875 452.434Q885.469 473.24 885.327 494.106C885.226 501.315 884.617 508.498 884.512 515.71C883.481 521.689 882.317 529.456 882.889 535.478C882.385 552.269 878.497 575.281 874.643 591.781C872.853 599.448 870.232 607.12 868.836 614.847C867.886 616.281 867.713 617.114 867.644 618.822Q865.284 626.533 862.636 634.15Q859.988 641.767 857.056 649.279Q854.124 656.792 850.911 664.189Q847.699 671.586 844.212 678.857Q840.724 686.128 836.966 693.263Q833.208 700.398 829.185 707.387Q825.162 714.376 820.879 721.209Q816.596 728.042 812.06 734.709C805.677 743.994 798.959 753.141 792.202 762.157C789.195 766.169 785.514 770.092 782.979 774.386C790.614 768.607 796.471 760.571 804.395 754.872C833.666 733.823 871.963 728.195 907.148 727.051Q915.777 719.049 924.491 711.139Q922.352 715.021 920.144 718.865Q917.936 722.709 915.66 726.513Q913.384 730.317 911.042 734.08Q908.699 737.844 906.29 741.565Q903.881 745.286 901.407 748.964Q898.932 752.642 896.393 756.275Q893.854 759.909 891.251 763.497Q888.647 767.085 885.981 770.626Q883.315 774.167 880.586 777.661Q877.858 781.154 875.067 784.599Q872.277 788.044 869.427 791.438Q866.576 794.833 863.666 798.177Q860.755 801.52 857.786 804.812Q854.817 808.103 851.79 811.342Q848.764 814.58 845.68 817.765Q842.596 820.949 839.456 824.078Q836.317 827.208 833.122 830.281Q829.927 833.354 826.679 836.37Q823.43 839.386 820.129 842.344Q816.827 845.302 813.474 848.201Q810.121 851.101 806.716 853.94Q803.312 856.779 799.858 859.558Q796.404 862.336 792.902 865.053Q789.399 867.77 785.849 870.425Q782.299 873.079 778.702 875.67Q775.106 878.262 771.464 880.789Q767.822 883.316 764.136 885.778Q760.45 888.24 756.72 890.637Q752.991 893.033 749.22 895.363Q745.449 897.693 741.637 899.956Q737.826 902.219 733.975 904.414Q730.123 906.609 726.234 908.736Q721.443 911.322 716.591 913.791Q711.738 916.26 706.827 918.611Q701.917 920.962 696.95 923.193Q691.984 925.425 686.965 927.535Q681.946 929.645 676.878 931.633Q671.809 933.621 666.694 935.485Q661.578 937.35 656.419 939.09Q651.261 940.83 646.061 942.445Q640.861 944.059 635.624 945.547Q630.387 947.035 625.115 948.396Q619.844 949.757 614.54 950.989Q609.237 952.222 603.906 953.325Q598.574 954.429 593.218 955.403Q587.861 956.377 582.483 957.221Q577.104 958.065 571.706 958.779Q566.309 959.492 560.896 960.075Q555.482 960.657 550.057 961.109Q544.631 961.56 539.196 961.879Q533.76 962.199 528.319 962.386Q522.878 962.574 517.434 962.63Q511.99 962.686 506.546 962.609Q501.102 962.533 495.661 962.325Q490.221 962.117 484.787 961.777Q479.353 961.438 473.929 960.966Q468.505 960.495 463.094 959.892Q457.683 959.289 452.288 958.556Q446.893 957.822 441.518 956.958Q436.142 956.094 430.789 955.1Q425.436 954.105 420.109 952.982Q414.782 951.858 409.483 950.606Q404.185 949.353 398.918 947.973Q393.652 946.593 388.42 945.085Q382.739 943.376 377.102 941.529Q371.465 939.682 365.874 937.699Q360.283 935.715 354.742 933.597Q349.201 931.479 343.713 929.226Q338.225 926.974 332.793 924.589Q327.362 922.204 321.99 919.688Q316.617 917.172 311.308 914.526Q305.999 911.88 300.755 909.106Q295.511 906.332 290.337 903.431Q285.162 900.53 280.06 897.505Q274.957 894.479 269.929 891.331Q264.901 888.182 259.952 884.913Q255.002 881.643 250.133 878.254Q245.264 874.865 240.479 871.359Q235.694 867.853 230.995 864.231Q226.297 860.61 221.688 856.876Q217.078 853.141 212.561 849.296Q208.044 845.451 203.622 841.497Q199.199 837.543 194.874 833.483Q190.549 829.423 186.324 825.259Q182.099 821.095 177.976 816.83Q173.853 812.564 169.835 808.2Q165.817 803.836 161.906 799.375Q157.995 794.915 154.194 790.361Q150.392 785.807 146.703 781.162Q143.013 776.516 139.437 771.783Q135.862 767.05 132.402 762.231Q128.942 757.412 125.601 752.511Q122.259 747.609 119.037 742.628Q115.816 737.647 112.716 732.589Q109.616 727.531 106.64 722.399Q103.664 717.267 100.814 712.065C105.49 716.621 109.866 721.504 114.471 726.139C129.828 728.215 145.373 728.824 160.707 731.057C191.79 735.584 215.343 752.694 237.546 773.777C233.787 775.548 229.833 776.869 225.847 778.029C199.095 785.812 172.905 779.833 149.945 764.613C146.688 762.454 143.499 760.211 140.488 757.715C138.404 755.988 136.305 753.599 133.945 752.31C138.195 758.376 145.1 764.167 150.703 769.053C189.841 803.183 225.432 805.598 272.055 821.19Q286.958 826.277 301.453 832.432C308.888 835.633 316.152 839.189 323.769 841.954C275.88 810.864 236.066 773.752 205.162 725.47C199.808 717.106 194.212 708.489 189.88 699.548C189.394 698.401 189.305 698.063 188.333 697.316C185.361 690.175 180.96 683.309 177.517 676.332C170.305 661.718 158.831 633.652 155.572 618.162L154.739 616.396C153.281 607.515 150.451 598.561 148.486 589.747C144.556 572.125 141.475 553.656 140.36 535.634C134.639 533.76 129.218 530.82 124.079 527.718C87.8425 505.844 70.4362 467.715 60.5864 428.24C71.3296 432.849 81.7441 438.891 91.3101 445.598C116.295 463.117 133.536 486.417 138.888 516.783C138.799 495.043 138.805 473.644 141.563 451.994C133.465 448.205 127.599 443.845 121.777 436.999C99.8226 411.191 98.2694 368.811 100.877 336.524C116.848 352.591 133.669 377.886 139.727 399.577C142.833 410.695 143.729 421.686 143.747 433.172C147.427 417.526 151.103 401.807 156.218 386.557C155.574 386.215 154.97 385.85 154.394 385.402C149.993 381.981 147.877 375.957 147.256 370.593C143.843 341.083 171.013 299.396 188.907 276.844C190.648 306.538 192.254 343.936 178.468 371.094C174.912 378.1 170.034 384.698 162.28 387.18Q155.746 409.567 150.937 432.387C168.305 395.854 187.345 394.308 210.653 367.978C210.452 376.295 211.843 390.286 210.153 397.77C209.384 401.176 207.706 404.41 205.877 407.363C192.594 428.818 172.637 445.038 147.963 450.724C145.533 471.788 144.936 492.752 145.1 513.936C144.246 518.939 144.973 524.166 146.336 529.012C146.348 529.053 146.346 529.096 146.351 529.139C148.1 546.129 150.145 563.192 153.46 579.954C155.335 589.432 158.43 598.863 159.93 608.37C160.098 609.435 160.057 609.676 160.69 610.569L160.766 609.733L160.393 609.593L160.738 609.241L159.903 601.734L158.789 601.675L159.845 601.257C157.294 576.65 165.11 552.255 178.431 531.782C182.881 524.941 188.214 518.698 192.621 511.824C200.107 500.147 205.984 488.206 210.953 475.263C211.221 496.722 210.905 518.235 210.856 539.7C210.826 552.614 210.21 565.871 211.268 578.73C213.503 605.88 224.945 630.283 243.469 650.03C260.823 668.531 279.455 685.996 297.354 703.984L413.916 821.113L468.813 877.147C478.493 887.177 487.809 898.617 498.427 907.606C502.402 910.971 507.376 912.998 512.623 913.018C518.866 913.042 524.808 908.405 529.074 904.323C533.934 899.673 538.349 894.572 543.013 889.727Q559.33 873.077 575.324 856.116C583.826 847.267 592.684 838.741 601.275 829.973Q627.163 803.214 653.45 776.846Q699.05 732.02 744.03 686.572C757.842 672.434 772.687 658.34 785.05 642.917C793.892 631.887 800.169 618.975 804.891 605.702C808.917 594.387 811.966 582.299 813.407 570.353C814.882 558.132 814.162 545.171 814.137 532.859Q813.866 498.732 814.248 464.608C817.301 474.933 823.206 501.813 828.427 510.051C830.537 513.378 833.543 516.099 835.953 519.204C850.931 538.503 865.794 564.188 865.972 589.168C866.022 596.309 864.222 603.094 863.333 610.115C863.288 609.161 863.359 608.759 863.745 607.865C865.691 603.355 868.018 591.07 869.082 585.888C878.172 541.619 880.036 496.484 877.223 451.483C861.237 445.025 846.422 438.139 833.999 425.759C828.645 420.425 816.852 405.981 815.17 398.564C813.522 391.302 814.603 376.851 814.623 368.928C837.507 389.758 863.745 399.648 874.794 430.615C872.459 416.543 869.329 402.993 866.075 389.124C860.823 386.786 856.409 383.975 852.564 379.634C831.392 355.735 831.658 306.652 833.467 276.086Z"/>
	<path fill="#FEFEFE" d="M326.033 843.526C332.763 846.551 338.959 851.326 345.552 854.743C362.828 863.699 381.25 871.188 399.676 877.414Q419.961 884.151 440.819 888.822C449.123 890.643 457.868 891.67 465.993 894.12C463.225 895.046 438.36 891.142 433.732 890.387C385.681 883.689 333.767 869.355 287.97 853.006C301.393 851.641 313.46 848.212 326.033 843.526Z"/>
	<path fill="#FEFEFE" d="M823.89 573.245C827.051 576.305 829.309 581.128 832.031 584.676C840.183 595.306 850.877 606.127 862.165 613.273C856.668 634.402 848.316 655.41 839.01 675.133Q835.051 683.393 830.849 691.532C839.152 658.568 835.491 627.496 819.082 597.52C821.417 589.474 822.9 581.552 823.89 573.245Z"/>
	<path fill="#FEFEFE" d="M777.983 669.829Q787.283 659.954 795.481 649.148C799.973 666.674 812.899 686.641 826.606 698.469C812.219 725.218 794.481 751.137 774.289 773.85C775.498 769.421 778.485 764.665 780.338 760.371C793.861 729.025 790.282 700.683 777.983 669.829Z"/>
	<path fill="#202648" d="M777.983 669.829C790.282 700.683 793.861 729.025 780.338 760.371C778.485 764.665 775.498 769.421 774.289 773.85C773.267 775.272 772.162 776.355 770.864 777.527C758.862 758.041 745.893 726.587 745.406 703.523C748.508 699.233 753.108 695.264 756.762 691.401C763.525 684.254 770.141 675.768 777.983 669.829Z"/>
	<path fill="#FEFEFE" d="M278.537 699.308C284.717 706.268 291.286 712.867 297.468 719.826Q296.916 721.965 296.44 724.122Q295.964 726.279 295.563 728.451Q295.163 730.624 294.839 732.809Q294.515 734.994 294.268 737.189Q294.021 739.384 293.851 741.586Q293.68 743.788 293.587 745.995Q293.495 748.202 293.479 750.411Q293.464 752.62 293.526 754.828Q293.588 757.036 293.727 759.241Q293.866 761.445 294.083 763.643Q294.299 765.842 294.593 768.031Q294.886 770.22 295.256 772.398Q295.626 774.576 296.072 776.739Q296.518 778.903 297.04 781.049Q297.561 783.196 298.158 785.323Q298.754 787.449 299.425 789.554C304.293 802.656 310.375 813.946 319.875 824.337C323.758 828.584 328.722 832.748 331.784 837.605C325.925 834.775 320.481 830.817 315.123 827.151Q302.799 818.803 291.134 809.558Q279.469 800.312 268.528 790.221C263.112 785.182 258.325 778.632 252.612 774.119L252.893 773.619C255.802 768.543 259.468 763.919 262.511 758.913C274.151 739.765 278.75 721.606 278.537 699.308Z"/>
	<path fill="#FEFEFE" d="M201.45 565.982C201.635 573.636 203.577 583.49 201.787 590.847C201.191 593.297 199.892 595.735 198.909 598.061C189.699 622.311 184.967 649.346 191.443 674.886C193.578 683.308 197.585 691.403 199.231 699.886L199.431 700.888C199.469 701.088 199.502 701.29 199.537 701.491C212.302 685.51 223.24 667.014 226.421 646.49C232.31 652.923 238.085 659.741 244.346 665.796C236.138 693.861 232.691 723.191 242.436 751.447C245.144 759.299 249.988 766.385 252.612 774.119C245.47 767.171 239.128 759.331 232.904 751.567Q227.744 745.154 222.856 738.532Q217.968 731.909 213.36 725.089Q208.752 718.268 204.433 711.261Q200.114 704.255 196.09 697.074Q192.066 689.894 188.345 682.552Q184.625 675.21 181.213 667.719Q177.801 660.228 174.705 652.601Q171.609 644.975 168.833 637.226C166.271 629.953 163.498 622.437 161.885 614.885C165.039 613.021 167.855 610.348 170.592 607.917C184.089 595.931 193.771 582.277 201.45 565.982Z"/>
	<path fill="#FEFEFE" d="M332.742 755.288C337.793 758.377 347.608 770.255 352.257 775.16C366.048 789.712 379.778 804.362 393.779 818.709L436.228 861.362C444.062 869.165 452.496 876.758 459.669 885.153L452.883 883.647Q439.85 881.039 427.015 877.588Q414.179 874.137 401.596 869.858Q389.012 865.58 376.733 860.491Q364.455 855.403 352.533 849.526C345.055 845.777 337.586 842.054 330.703 837.27C341.699 806.435 340.025 786.47 332.742 755.288Z"/>
	<path fill="#FEFEFE" d="M782.979 774.386C797.544 783.263 832.932 781.098 849.327 777.155C854.16 775.992 858.884 774.465 863.609 772.93L863.346 772.977L863.621 772.664L864.748 772.852C864.028 773.774 863.284 774.368 862.37 775.081L862.706 776.75C860.249 780.266 855.881 782.621 852.586 785.287C829.861 803.676 803.459 819.602 777.408 832.824C768.857 837.164 760.013 840.888 751.418 845.118L751.291 845.556C743.853 849.388 735.251 852.12 727.412 855.127Q717.281 858.912 707.032 862.367Q696.783 865.823 686.427 868.944Q676.072 872.065 665.621 874.849Q655.169 877.632 644.633 880.076Q634.098 882.52 623.488 884.621Q612.878 886.722 602.206 888.478Q591.534 890.234 580.811 891.643Q570.087 893.052 559.324 894.113L559.245 894.59L557.993 894.249C559.033 893.359 588.827 887.475 593.528 886.225Q604.689 883.302 615.686 879.812Q626.683 876.322 637.486 872.273Q648.29 868.225 658.872 863.628Q669.454 859.031 679.787 853.899C705.04 841.151 737.331 820.784 757.746 801.282C763.077 796.19 768.017 790.759 772.9 785.242C775.979 781.763 779.218 777.078 782.979 774.386Z"/>
	<path fill="#202648" d="M751.418 845.118C744.325 847.807 736.726 850.418 729.074 850.606C723.07 850.754 708.582 849.098 704.196 844.966L704.178 843.938C706.978 840.54 712.314 838.594 716.144 836.606Q727.812 830.516 739.983 825.509Q752.154 820.501 764.729 816.617C784.684 810.469 805.374 805.772 824.653 797.653C838.061 792.006 850.329 783.15 862.37 775.081L862.706 776.75C860.249 780.266 855.881 782.621 852.586 785.287C829.861 803.676 803.459 819.602 777.408 832.824C768.857 837.164 760.013 840.888 751.418 845.118Z"/>
	<path fill="#FEFEFE" d="M745.406 703.523C745.893 726.587 758.862 758.041 770.864 777.527C728.126 824.652 667.616 856.267 607.386 874.646C593.037 879.025 578.3 882.135 563.723 885.664C574.152 874.288 585.393 863.63 596.242 852.656L669.128 779.568C672.579 776.116 685.683 761.175 688.754 759.669C696.249 752.311 704.077 745.282 711.5 737.857C716.994 732.361 722.003 726.228 727.991 721.251C729.115 721.768 729.183 721.957 729.852 723.019Q729.833 722.37 729.835 721.72C729.842 721.013 729.807 720.132 730.101 719.472C731.794 715.677 741.95 706.882 745.406 703.523Z"/>
	<path fill="#202648" d="M688.754 759.669C696.249 752.311 704.077 745.282 711.5 737.857C716.994 732.361 722.003 726.228 727.991 721.251C729.115 721.768 729.183 721.957 729.852 723.019C730.178 733.23 730.335 743.308 729.506 753.499C727.477 778.441 719.561 811.669 702.23 830.092C700.155 832.297 697.52 835.205 694.468 835.841C692.825 835.284 692.365 834.264 691.632 832.734C680.846 810.246 684.824 783.322 688.754 759.669Z"/>
	<path fill="#202648" d="M491.205 190.709C507.492 189.165 527.562 190.133 543.965 191.554C624.012 198.49 698.826 235.91 756.166 291.528C767.274 302.303 777.378 314.001 787.328 325.831C786.643 332.021 787.087 338.632 787.12 344.877L787.299 381.177L787.28 500.993L787.364 542.66C787.374 550.701 787.695 558.893 787.083 566.905C785.577 586.628 775.831 607.67 764.387 623.484C756.127 634.899 744.607 645.038 734.736 655.134L688.039 703.365Q607.332 787.802 525.328 870.979C522.027 874.373 516.888 880.165 511.848 880.269C508.119 880.346 503.429 875.165 500.872 872.752C486.158 858.869 472.378 843.904 458.163 829.514L356.702 726.481L289.734 659.614C278.496 648.312 266.368 637.571 256.502 625.006Q254.894 622.993 253.406 620.891Q251.917 618.789 250.552 616.604Q249.187 614.42 247.951 612.16Q246.715 609.9 245.612 607.572Q244.508 605.244 243.542 602.857Q242.575 600.469 241.747 598.03Q240.92 595.59 240.235 593.107Q239.55 590.624 239.01 588.105C236.458 576.123 237.065 563.525 237.062 551.337L237.074 511.407L237.104 403.5C237.162 379.475 237.616 355.401 236.905 331.386C243.579 320.136 254.084 308.866 262.776 299.072C319.695 234.933 406.087 195.826 491.205 190.709Z"/>
	<path fill="#F6D78F" d="M510.088 232.995C511.294 232.916 512.545 232.847 513.744 233.054C516.269 233.491 518.665 235.129 519.951 237.342C521.089 239.3 521.245 241.69 520.578 243.832C519.588 247.008 517.258 248.553 514.446 250.021C513.068 250.198 511.492 250.234 510.146 249.853C507.978 249.24 505.928 247.758 504.819 245.78C503.674 243.738 503.456 241.36 504.12 239.123C505.07 235.924 507.276 234.473 510.088 232.995Z"/>
	<path fill="#F6D78F" d="M434.358 363.164C450.079 356.752 467.154 352.216 482.371 344.775L483.883 351.059Q470.021 355.8 456.388 361.165C450.477 363.434 444.215 366.283 438.05 367.685L437.879 367.293L438.264 366.689L439.692 366.759L440.395 366.102C440.313 365.316 440.215 364.503 440.242 363.711C440.253 363.371 440.287 363.033 440.309 362.693C438.555 362.082 436.987 363.163 435.185 363.172C434.909 363.174 434.634 363.167 434.358 363.164Z"/>
	<path fill="#EAB13B" d="M434.358 363.164C434.634 363.167 434.909 363.174 435.185 363.172C436.987 363.163 438.555 362.082 440.309 362.693C440.287 363.033 440.253 363.371 440.242 363.711C440.215 364.503 440.313 365.316 440.395 366.102L439.692 366.759L438.264 366.689L437.879 367.293L438.05 367.685C423.663 374.495 380.81 384.453 364.472 385.162C380.573 381.788 396.618 376.545 412.127 371.059C419.49 368.455 426.844 365.261 434.358 363.164Z"/>
	<path fill="#EAB13B" d="M477.639 566.748C477.894 572.16 478.371 611.653 478.794 612.752C481.619 612.798 483.455 611.129 485.398 609.255C488.492 606.269 491.271 602.485 493.5 598.822C493.513 596.825 493.39 594.794 493.925 592.856C494.307 602.901 494.067 613.021 494.071 623.075L477.573 623.073L477.639 566.748Z"/>
	<path fill="#EAB13B" d="M541.08 344.777C549.12 349.035 560.493 352.079 569.226 355.195C589.363 362.382 609.455 370.118 629.845 376.542C635.722 378.393 641.772 380.534 647.71 382.109C652.639 383.417 657.89 384.027 662.689 385.729L662.708 386.406Q653.19 385.024 643.75 383.186Q634.31 381.347 624.969 379.058Q615.628 376.768 606.408 374.033Q597.188 371.297 588.11 368.122C572.078 362.655 556.213 355.74 539.672 352.012C540.012 349.586 540.585 347.176 541.08 344.777Z"/>
	<path fill="#EAB13B" d="M470.11 360.593Q512.547 360.315 554.984 360.598C555.03 363.675 555.181 366.765 554.811 369.826C526.454 369.383 498.059 369.622 469.697 369.588C469.601 366.585 469.892 363.587 470.11 360.593Z"/>
	<path fill="#F6D78F" d="M545.918 430.395Q546.188 450.753 546.222 471.112C546.25 478.561 546.628 486.322 546.142 493.75C545.996 496.285 545.874 498.824 545.696 501.358L545.247 499.205L544.543 498.955C541.551 502.863 539.529 509.089 537.829 513.705L537.495 513.259C537.858 511.781 538.53 510.228 538.064 508.772C535.209 509.397 532.413 510.926 529.801 512.228C529.715 515.552 529.844 519.068 529.031 522.299C528.53 509.017 529.017 495.526 529.1 482.231C529.204 465.453 529.017 448.638 529.439 431.866C531.343 437.213 528.219 444.915 531.331 449.654L532.408 449.835C534.404 448.995 536.148 448.259 538.344 448.109C539.676 448.017 541.119 447.98 542.328 447.325C547.779 444.371 543.963 436.007 545.621 431.177C545.711 430.913 545.819 430.656 545.918 430.395Z"/>
	<path fill="#EAB13B" d="M529.026 377.019L545.883 377.02C545.7 394.804 546.336 412.615 545.918 430.395C545.819 430.656 545.711 430.913 545.621 431.177C543.963 436.007 547.779 444.371 542.328 447.325C541.119 447.98 539.676 448.017 538.344 448.109C536.148 448.259 534.404 448.995 532.408 449.835L531.331 449.654C528.219 444.915 531.343 437.213 529.439 431.866C528.604 426.054 529.167 419.362 529.145 413.462L529.026 377.019Z"/>
	<defs>
		<linearGradient id="gradient_1" gradientUnits="userSpaceOnUse" x1="700.99988" y1="360.5542" x2="637.52856" y2="360.39786">
			<stop offset="0" stop-color="#EDA428"/>
			<stop offset="1" stop-color="#FBD17B"/>
		</linearGradient>
	</defs>
	<path fill="url(#gradient_1)" d="M634.491 356.904C648.144 363.297 665.857 372.588 681.191 367.079C684.785 365.788 689.275 363.095 690.925 359.461C691.573 358.035 691.842 355.743 691.22 354.267C690.82 353.32 690.418 352.949 689.631 352.337C684.367 351.18 678.49 360.878 674.159 354.488C673.046 352.846 672.909 350.756 673.306 348.856C674.037 345.352 676.419 342.908 679.441 341.167Q680.048 340.813 680.688 340.525Q681.328 340.236 681.994 340.016Q682.661 339.796 683.347 339.647Q684.033 339.497 684.731 339.42Q685.429 339.343 686.131 339.339Q686.833 339.335 687.532 339.405Q688.231 339.474 688.918 339.616Q689.606 339.758 690.275 339.971C694.828 341.378 698.396 344.971 700.388 349.232C702.865 354.532 702.803 360.514 700.636 365.905C698.085 372.253 692.991 376.893 686.711 379.444C682.776 381.043 678.298 381.976 674.046 381.931C660.415 381.785 638.732 374.223 625.882 369.154C629.543 368.334 633.278 371.368 636.866 371.754C637.425 371.814 637.449 371.878 637.822 371.504C639.63 369.691 640.741 363.671 640.649 361.175C639.253 359.545 636.513 358.758 634.557 357.919L634.491 356.904Z"/>
	<path fill="#EAB13B" d="M393.997 371.031C393.575 371.254 393.424 371.345 392.928 371.543C378.158 377.449 354.899 385.078 339.477 379.065C332.427 376.316 325.176 370.201 322.295 363.128Q322.111 362.681 321.95 362.225Q321.789 361.769 321.651 361.306Q321.513 360.842 321.399 360.372Q321.286 359.902 321.196 359.427Q321.106 358.952 321.041 358.473Q320.975 357.994 320.935 357.512Q320.894 357.03 320.877 356.547Q320.861 356.064 320.87 355.58Q320.878 355.097 320.911 354.615Q320.944 354.132 321.002 353.652Q321.059 353.172 321.141 352.696Q321.223 352.219 321.33 351.747Q321.436 351.276 321.566 350.81Q321.696 350.344 321.85 349.886Q322.004 349.427 322.18 348.977Q322.357 348.527 322.557 348.087C324.777 343.207 329.125 339.125 334.186 337.322C337.62 336.098 342.105 335.834 345.434 337.536C347.485 338.585 348.842 340.387 349.513 342.571C350.276 345.056 350.388 348.056 349.067 350.367C348.206 351.872 346.534 353.59 344.774 353.91C340.98 354.6 339.043 349.31 336.103 347.96C335.414 347.644 334.72 347.395 333.981 347.645C332.718 348.072 331.931 349.088 331.414 350.267C330.564 352.206 330.954 355.097 331.835 356.951C333.806 361.093 337.622 364.082 341.871 365.623C357.603 371.329 377.084 363.934 391.242 357.117C390.104 358.345 389.272 358.756 389.326 360.544C389.404 363.143 390.521 368.997 392.491 370.733L393.997 371.031Z"/>
	<path fill="#FEFEFE" d="M465.673 630.545C473.674 630.034 555.947 629.373 558.756 631.109C558.914 631.206 559.063 631.318 559.217 631.421C562.19 633.401 566.624 637.516 567.058 641.323C567.211 642.661 566.934 642.939 566.203 643.968C564.17 644.711 561.189 644.28 559.017 644.242L456.424 643.956C456.656 642.662 456.869 641.331 457.219 640.063C458.553 635.236 461.539 632.895 465.673 630.545Z"/>
	<path fill="#F6D78F" d="M510.471 255.576C514.123 255.565 517.602 256.56 520.776 258.354C533.12 265.33 539.855 280.566 543.378 293.59C534.149 296.436 524.949 298.055 515.362 298.994Q510.991 299.085 506.632 298.757Q502.273 298.43 497.965 297.686Q493.657 296.943 489.44 295.791Q485.223 294.638 481.136 293.088C482.929 287.101 485.218 281.107 488.2 275.608C493.277 266.245 500.004 258.647 510.471 255.576Z"/>
	<path fill="#F6D78F" d="M391.242 357.117C418.275 341.13 446.269 326.395 475.676 315.276Q478.316 326.633 481.27 337.912Q451 350.021 420.559 361.695C412.424 364.769 402.317 369.381 393.997 371.031L392.491 370.733C390.521 368.997 389.404 363.143 389.326 360.544C389.272 358.756 390.104 358.345 391.242 357.117Z"/>
	<path fill="#EAB13B" d="M546.142 493.75C546.649 510.024 546.277 526.386 546.178 542.67L545.926 623.092L528.945 623.136L528.777 553.282C528.78 544.577 527.933 530.245 529.031 522.299C529.844 519.068 529.715 515.552 529.801 512.228C532.413 510.926 535.209 509.397 538.064 508.772C538.53 510.228 537.858 511.781 537.495 513.259L537.829 513.705C539.529 509.089 541.551 502.863 544.543 498.955L545.247 499.205L545.696 501.358C545.874 498.824 545.996 496.285 546.142 493.75Z"/>
	<path fill="#F6D78F" d="M547.767 314.888C560.413 320.172 573.108 325.361 585.469 331.289C602.088 339.258 618.237 348.222 634.491 356.904L634.557 357.919C636.513 358.758 639.253 359.545 640.649 361.175C640.741 363.671 639.63 369.691 637.822 371.504C637.449 371.878 637.425 371.814 636.866 371.754C633.278 371.368 629.543 368.334 625.882 369.154C597.881 359.573 570.209 348.532 542.599 337.89Q545.106 326.372 547.767 314.888Z"/>
	<defs>
		<linearGradient id="gradient_2" gradientUnits="userSpaceOnUse" x1="542.6842" y1="605.42303" x2="485.66586" y2="527.39807">
			<stop offset="0" stop-color="#F1A51B"/>
			<stop offset="1" stop-color="#F1CE78"/>
		</linearGradient>
	</defs>
	<path fill="url(#gradient_2)" d="M501.923 494.406C503.038 502.416 500.436 516.804 502.519 523.49Q502.552 521.626 502.536 519.761C504.245 518.316 506.021 516.498 508.08 515.601L507.607 516.692L508.347 516.971C512.32 513.677 513.728 504.925 519.303 503.977C520.058 504.307 520.335 504.206 520.65 505.04C521.06 506.125 521.055 507.15 521.087 508.29C521.893 505.342 521.022 502.259 521.81 499.214L521.573 623.127L501.847 623.076C501.341 597.065 501.591 571.005 501.57 544.988C501.557 528.242 500.82 511.108 501.923 494.406Z"/>
	<path fill="#F6D78F" d="M479.884 299.987C502.683 307.613 521.251 308.156 544.082 300.042Q539.629 318.842 535.399 337.694Q533.915 345.352 532.2 352.961C518.734 352.581 505.201 352.836 491.724 352.69C488.988 344.398 487.592 335.182 485.718 326.633C483.781 317.801 481.295 308.908 479.884 299.987Z"/>
	<path fill="#FEFEFE" d="M436.615 650.551C446.789 650.05 457.162 650.457 467.358 650.472L521.944 650.47L561.041 650.457C568.036 650.456 575.425 649.974 582.36 650.712C584.861 650.978 586.936 651.844 589.008 653.256C593.59 656.377 595.112 660.886 596.087 666.059L584.75 666.097L482.718 666.115C463.377 666.114 443.932 666.389 424.603 665.741C425.067 663.718 425.544 661.689 426.343 659.766C428.371 654.885 431.962 652.539 436.615 650.551Z"/>
	<path fill="#FEFEFE" d="M643.175 529.751L728.405 529.594C743.122 529.572 758.288 528.82 772.958 529.653C774.497 529.74 776.547 529.755 777.726 530.846C779.016 532.04 779.608 533.65 779.75 535.375C779.913 537.36 779.454 539.859 777.912 541.271C776.958 542.145 775.897 542.657 774.61 542.816C768.71 543.544 761.757 542.832 755.762 542.831L713.75 542.829L625.262 542.784C612.094 542.749 595.343 543.565 582.508 542.453C581.434 542.36 580.424 542.201 579.54 541.509C578.291 540.532 577.742 538.835 577.685 537.303C577.611 535.295 578.343 532.772 579.894 531.402C581.119 530.321 583.069 530.037 584.631 529.877C591.148 529.211 598.23 529.81 604.8 529.831L643.175 529.751Z"/>
	<path fill="#F6D78F" d="M501.992 377.071L521.947 377.036L521.81 499.214C521.022 502.259 521.893 505.342 521.087 508.29C521.055 507.15 521.06 506.125 520.65 505.04C520.335 504.206 520.058 504.307 519.303 503.977C513.728 504.925 512.32 513.677 508.347 516.971L507.607 516.692L508.08 515.601C506.021 516.498 504.245 518.316 502.536 519.761Q502.552 521.626 502.519 523.49C500.436 516.804 503.038 502.416 501.923 494.406C501.133 481.268 501.906 467.692 501.934 454.511L501.992 377.071Z"/>
	<path fill="#FEFEFE" d="M682.17 385.599L682.703 385.703C684.822 389.043 686.545 392.807 688.536 396.268C695.913 409.093 702.937 422.117 710.38 434.903L741.818 490.007C748.466 501.712 755.764 513.47 761.492 525.637C759.479 525.858 757.518 526.285 755.537 526.694C750.998 517.885 745.788 509.38 740.922 500.745Q726.539 474.682 711.476 449.006C701.518 431.815 691.344 414.711 682.186 397.075C681.645 410.646 681.86 424.313 681.785 437.896L681.763 526.504C679.966 526.625 678.255 526.815 676.478 526.463C675.302 525.247 675.554 524.771 675.489 523.125L675.622 393.749C651.841 438.839 625.809 482.714 600.561 526.986L594.051 526.97L657.306 414.854C662.559 405.541 667.51 396.066 672.87 386.811C676.159 386.859 679.02 386.471 682.17 385.599Z"/>
	<path fill="#F6D78F" d="M477.763 377.075L494.08 377.074L494.008 522.525L493.994 569.154C493.992 576.972 494.459 585.084 493.925 592.856C493.39 594.794 493.513 596.825 493.5 598.822C491.271 602.485 488.492 606.269 485.398 609.255C483.455 611.129 481.619 612.798 478.794 612.752C478.371 611.653 477.894 572.16 477.639 566.748L477.763 377.075Z"/>
	<path fill="#FEFEFE" d="M419.735 672.56C429.996 671.851 440.499 672.292 450.797 672.296L507.488 672.381L567.056 672.339C577.594 672.315 588.348 671.853 598.864 672.396C602.007 672.558 605.52 672.683 608.215 674.432C616.267 679.661 618.005 689.955 619.809 698.637L604.757 698.5L404.565 698.738C405.404 694.559 406.128 690.24 407.466 686.189C409.687 679.463 413.571 675.704 419.735 672.56Z"/>
	<path fill="#EAB13B" d="M587.69 549.054L771.196 549.122C764.712 560.027 756.408 570.556 746.685 578.75Q742.834 582.04 738.685 584.947Q734.536 587.853 730.128 590.349Q729.042 590.978 727.941 591.58Q726.84 592.182 725.725 592.756Q724.609 593.331 723.479 593.877Q722.35 594.423 721.207 594.941Q720.064 595.459 718.909 595.949Q717.753 596.438 716.586 596.899Q715.419 597.359 714.24 597.79Q713.062 598.221 711.873 598.623Q710.684 599.025 709.486 599.397Q708.287 599.769 707.08 600.111Q705.873 600.453 704.657 600.765Q703.442 601.076 702.219 601.358Q700.996 601.639 699.767 601.89Q698.537 602.141 697.302 602.361Q696.067 602.581 694.826 602.771Q693.586 602.96 692.341 603.119Q691.096 603.277 689.848 603.404Q688.6 603.531 687.349 603.628Q686.098 603.724 684.844 603.789Q683.591 603.854 682.337 603.887Q681.083 603.921 679.828 603.924Q678.573 603.926 677.319 603.897Q676.064 603.868 674.811 603.808Q673.557 603.748 672.306 603.657Q671.054 603.566 669.806 603.443Q668.557 603.321 667.311 603.167Q666.066 603.014 664.825 602.829Q663.584 602.645 662.348 602.429Q661.111 602.214 659.881 601.968Q658.651 601.722 657.427 601.445Q656.203 601.168 654.986 600.861Q653.77 600.554 652.561 600.217C625.424 592.677 601.553 573.538 587.69 549.054Z"/>
	<path fill="#EAB13B" d="M254.757 549.015L436.263 549.036C428.824 560.399 421.006 570.842 410.794 579.933C404.863 584.897 398.604 589.322 391.776 592.978Q390.694 593.551 389.598 594.097Q388.502 594.643 387.393 595.162Q386.284 595.681 385.162 596.172Q384.04 596.663 382.907 597.126Q381.773 597.589 380.629 598.024Q379.484 598.459 378.329 598.866Q377.174 599.273 376.009 599.65Q374.845 600.028 373.671 600.377Q372.497 600.726 371.315 601.046Q370.133 601.366 368.944 601.656Q367.754 601.947 366.558 602.207Q365.361 602.468 364.159 602.7Q362.956 602.931 361.749 603.132Q360.541 603.333 359.328 603.505Q358.116 603.676 356.9 603.818Q355.683 603.959 354.464 604.07Q353.245 604.182 352.023 604.262Q350.801 604.344 349.578 604.394Q348.354 604.445 347.13 604.465Q345.906 604.486 344.681 604.476Q343.457 604.466 342.233 604.426Q341.009 604.386 339.787 604.315Q338.564 604.245 337.344 604.144Q336.123 604.044 334.906 603.913Q333.689 603.782 332.475 603.621Q331.261 603.46 330.051 603.269Q328.842 603.078 327.637 602.857Q326.433 602.637 325.234 602.386Q324.036 602.136 322.844 601.855Q321.652 601.575 320.467 601.266Q319.282 600.956 318.106 600.617Q316.929 600.279 315.761 599.911Q314.544 599.534 313.336 599.126Q312.129 598.719 310.932 598.282Q309.735 597.845 308.549 597.379Q307.363 596.913 306.189 596.417Q305.015 595.922 303.854 595.398Q302.692 594.874 301.544 594.321Q300.396 593.768 299.262 593.188Q298.128 592.607 297.008 591.998Q295.889 591.389 294.785 590.753Q293.68 590.117 292.592 589.454Q291.504 588.791 290.433 588.101Q289.361 587.411 288.307 586.696Q287.253 585.98 286.217 585.238Q285.181 584.496 284.163 583.729Q283.146 582.962 282.148 582.17Q281.149 581.378 280.171 580.562Q279.192 579.745 278.234 578.905Q277.276 578.065 276.339 577.201Q275.402 576.338 274.487 575.451Q273.572 574.565 272.678 573.656Q271.785 572.748 270.914 571.817Q270.044 570.887 269.197 569.935Q268.349 568.983 267.526 568.011Q266.702 567.039 265.902 566.046Q265.103 565.054 264.328 564.042Q263.554 563.031 262.804 562Q262.055 560.97 261.331 559.921Q260.607 558.872 259.909 557.806Q259.211 556.74 258.54 555.656Q257.869 554.573 257.225 553.474Q256.58 552.375 255.963 551.26Q255.346 550.145 254.757 549.015Z"/>
	<path fill="#FEFEFE" d="M339.016 387.622C342.806 388.005 346.696 387.891 350.506 387.922C359.157 401.752 429.364 524.442 429.326 528.341C428.404 528.761 427.683 529.116 426.638 529.113C425.085 529.108 423.935 528.27 423.007 527.103C421.652 525.399 420.693 523.193 419.563 521.318C414.427 512.794 409.965 503.864 405.076 495.197L364.066 423.214C359.758 415.591 353.534 402.073 348.172 396.014C347.952 395.766 347.725 395.526 347.502 395.282L347.548 519.75L347.553 529.716L407.041 529.766C416.567 529.737 426.381 528.956 435.871 529.513C437.585 529.613 439.325 529.929 440.916 530.592C442.958 531.443 444.499 532.765 445.263 534.871C445.801 536.356 445.498 538.866 444.631 540.181C443.725 541.557 442.224 542.125 440.676 542.348C434.075 543.3 426.571 542.535 419.845 542.508L377.741 542.468L293.738 542.469C280.168 542.471 266.435 542.971 252.883 542.518C250.825 542.449 249.143 542.485 247.481 541.124C245.711 539.673 244.446 536.531 244.466 534.276C244.477 533.023 244.919 531.726 245.955 530.946C248.652 528.916 255.107 529.909 258.368 529.958C265.743 513.821 276.702 496.719 285.613 481.144L339.016 387.622Z"/>
	<path fill="#202648" d="M341.218 395.89C341.748 396.724 341.766 396.514 341.856 397.33C342.361 401.87 342.081 406.771 342.121 411.349Q342.232 425.541 342.196 439.733L342.194 529.829L264.643 529.885L264.192 529.486C265.949 525.544 269.08 521.674 271.315 517.93Q278.625 505.506 285.699 492.946C304.129 460.58 322.372 428.007 341.218 395.89Z"/>
</svg>
